<?xml version="1.0" encoding="UTF-8" standalone="no"?>
<!DOCTYPE svg PUBLIC "-//W3C//DTD SVG 1.1//EN" "http://www.w3.org/Graphics/SVG/1.1/DTD/svg11.dtd">
<svg width="100%" height="100%" viewBox="0 0 1029 237" version="1.1" xmlns="http://www.w3.org/2000/svg" xmlns:xlink="http://www.w3.org/1999/xlink" xml:space="preserve" xmlns:serif="http://www.serif.com/" style="fill-rule:evenodd;clip-rule:evenodd;stroke-linejoin:round;stroke-miterlimit:2;">
    <g transform="matrix(1,0,0,1,-1994.64,-381.505)">
        <g transform="matrix(1,0,0,1,216,-782)">
            <g transform="matrix(1.00538,0,0,0.354839,-22.3817,777.419)">
                <path d="M2861,1031.4L2861,1812.6C2861,1904.99 2834.53,1980 2801.92,1980L1804.08,1980C1771.47,1980 1745,1904.99 1745,1812.6L1745,1031.4C1745,939.009 1771.47,864 1804.08,864L2801.92,864C2834.53,864 2861,939.009 2861,1031.4Z" style="fill:white;"/>
            </g>
            <g transform="matrix(1,0,0,1,-14.1181,22.8663)">
                <g transform="matrix(0.579609,0,0,0.579609,1210.97,936.645)">
                    <g transform="matrix(1.29366,0,0,0.765647,292.468,78.9592)">
                        <path d="M589.724,525.141L589.724,588.303L589.782,588.303L589.782,669.973L550.833,669.973L550.833,361.508L628.166,361.508C644.463,361.508 658.489,365.948 670.241,374.828C681.994,383.707 691.044,396.47 697.393,413.114C703.742,429.758 706.917,449.56 706.917,472.521C706.917,495.275 703.742,514.953 697.393,531.556C691.044,548.159 681.994,560.921 670.241,569.842C658.489,578.763 644.463,583.224 628.166,583.224L621.89,583.224L621.89,529.001L626.291,529.001C639.997,529.001 650.313,524.049 657.239,514.143C664.166,504.237 667.629,490.363 667.629,472.521C667.629,454.472 664.166,440.495 657.239,430.589C650.313,420.683 639.997,415.73 626.291,415.73L589.782,415.73L589.782,525.141L589.724,525.141Z" style="fill:rgb(30,63,109);"/>
                    </g>
                    <g transform="matrix(1.29366,0,0,0.765647,292.468,78.9592)">
                        <path d="M777.504,582.398L777.434,582.398L777.434,669.973L738.484,669.973L738.484,361.508L815.059,361.508C840.088,361.508 859.597,371.363 873.585,391.074C887.574,410.784 894.568,437.933 894.568,472.521C894.568,495.275 891.393,514.88 885.044,531.336C878.695,547.792 869.645,560.416 857.892,569.209C857.483,569.515 857.071,569.815 856.657,570.111L897.922,669.973L855.912,669.973L819.945,582.301C818.586,582.365 817.21,582.398 815.817,582.398L809.67,582.398L809.67,529.311L813.942,529.311C827.648,529.311 837.964,524.307 844.891,514.298C851.817,504.289 855.28,490.363 855.28,472.521C855.28,454.472 851.817,440.495 844.891,430.589C837.964,420.683 827.648,415.73 813.942,415.73L777.434,415.73L777.434,529.311L777.504,529.311L777.504,582.398Z" style="fill:rgb(30,63,109);"/>
                    </g>
                    <g transform="matrix(1.29366,0,0,0.765647,292.468,78.9592)">
                        <path d="M1154.27,669.973L1154.27,361.508L1283.13,361.508L1283.13,399.653L1180.19,399.653L1180.19,669.973L1154.27,669.973ZM1177.79,545.292L1177.79,507.154L1271.83,507.154L1271.83,545.292L1177.79,545.292Z" style="fill:rgb(30,63,109);fill-rule:nonzero;"/>
                    </g>
                    <g transform="matrix(1,0,0,1,0,-16.4811)">
                        <g transform="matrix(-1.29366,1.58427e-16,-9.37647e-17,-0.765647,3914.37,885.152)">
                            <path d="M1496.42,534.218C1495.45,550.008 1493.21,564.847 1489.71,578.735C1484.87,597.908 1478.09,614.586 1469.37,628.767C1460.66,642.949 1450.42,653.954 1438.65,661.782C1426.88,669.611 1414.03,673.525 1400.08,673.525C1386.14,673.525 1373.24,669.571 1361.38,661.662C1349.52,653.753 1339.22,642.686 1330.49,628.461C1321.77,614.236 1314.98,597.567 1310.14,578.456C1305.3,559.344 1302.88,538.439 1302.88,515.74C1302.88,493.041 1305.3,472.136 1310.14,453.025C1314.98,433.913 1321.78,417.227 1330.52,402.965C1339.27,388.703 1349.54,377.636 1361.36,369.763C1370.91,363.395 1381.17,359.602 1392.14,358.386L1392.14,397.832C1384.96,398.98 1378.19,401.728 1371.83,406.077C1363.2,411.985 1355.68,420.315 1349.28,431.067C1342.88,441.82 1337.9,454.346 1334.35,468.644C1330.8,482.943 1329.02,498.6 1329.02,515.616C1329.02,532.632 1330.79,548.328 1334.34,562.702C1337.88,577.076 1342.85,589.67 1349.24,600.482C1355.63,611.294 1363.15,619.628 1371.8,625.483C1380.45,631.338 1389.87,634.265 1400.03,634.265C1410.2,634.265 1419.58,631.319 1428.17,625.428C1436.76,619.536 1444.24,611.228 1450.61,600.503C1456.98,589.778 1461.95,577.228 1465.5,562.853C1467.72,553.845 1469.25,544.3 1470.08,534.218L1496.42,534.218Z" style="fill:rgb(30,63,109);"/>
                        </g>
                        <g transform="matrix(-0.907219,1.11102e-16,-1.12007e-16,-0.91461,2713.9,650.043)">
                            <path d="M770.008,76.963L693.728,76.942L693.728,42.512L809.518,42.512L809.518,43L810,43L810,162L771.077,162L770.008,76.963Z" style="fill:rgb(131,130,129);"/>
                        </g>
                    </g>
                    <g transform="matrix(1.29366,0,0,0.765647,292.468,78.9592)">
                        <path d="M1562.88,576.125L1562.83,576.125L1562.83,669.973L1536.91,669.973L1536.91,361.508L1608.19,361.508C1631.8,361.508 1650.38,371.014 1663.96,390.027C1677.53,409.04 1684.32,435.427 1684.32,469.188C1684.32,491.332 1681.27,510.402 1675.16,526.399C1669.06,542.396 1660.33,554.683 1648.97,563.26C1647.39,564.454 1645.77,565.565 1644.1,566.593L1687.37,669.973L1659.04,669.973L1619.62,575.325C1615.95,575.858 1612.14,576.125 1608.19,576.125L1588.96,576.125L1588.96,538.724L1607.39,538.724C1624.08,538.724 1636.72,532.617 1645.3,520.405C1653.89,508.193 1658.18,491.12 1658.18,469.188C1658.18,446.958 1653.89,429.811 1645.3,417.748C1636.72,405.684 1624.08,399.653 1607.39,399.653L1562.83,399.653L1562.83,538.724L1562.88,538.724L1562.88,576.125Z" style="fill:rgb(30,63,109);"/>
                    </g>
                    <g transform="matrix(1.29366,0,0,0.765647,292.468,78.9592)">
                        <path d="M1726.51,669.973L1726.51,361.508L1747.9,361.508L1829.69,594.53L1818.31,594.53L1899.17,361.508L1920.57,361.508L1920.79,669.973L1895.74,669.973L1895.52,428.248L1901.36,428.248L1829.51,632.675L1817.57,632.675L1745.02,428.248L1751.55,428.248L1751.55,669.973L1726.51,669.973Z" style="fill:rgb(30,63,109);fill-rule:nonzero;"/>
                    </g>
                    <g transform="matrix(1,0,0,1,0,-6.76159)">
                        <g transform="matrix(1.29237,0,0,0.764884,294.091,86.3092)">
                            <path d="M1115.57,534.455C1114.58,550.358 1112.3,565.306 1108.73,579.299C1103.78,598.665 1096.86,615.497 1087.96,629.793C1079.07,644.089 1068.6,655.17 1056.57,663.036C1044.53,670.901 1031.37,674.834 1017.09,674.834C1002.81,674.834 989.596,670.868 977.458,662.936C965.32,655.004 954.797,643.871 945.89,629.538C936.984,615.205 930.059,598.38 925.116,579.062C920.172,559.744 917.701,538.616 917.701,515.678C917.701,492.741 920.173,471.643 925.118,452.384C930.062,433.126 936.995,416.306 945.917,401.925C954.839,387.544 965.346,376.402 977.438,368.5C987.51,361.918 998.346,358.077 1009.95,356.977L1009.95,413.55C1004.03,414.565 998.458,416.883 993.216,420.502C985.93,425.533 979.576,432.653 974.153,441.864C968.731,451.074 964.514,461.914 961.502,474.383C958.491,486.853 956.985,500.604 956.985,515.637C956.985,530.67 958.488,544.453 961.494,556.987C964.5,569.521 968.71,580.417 974.123,589.675C979.536,598.934 985.891,606.057 993.19,611.044C1000.49,616.031 1008.43,618.525 1017.01,618.525C1025.59,618.525 1033.51,616.017 1040.75,610.999C1048,605.982 1054.33,598.88 1059.72,589.693C1065.12,580.505 1069.32,569.645 1072.33,557.111C1074.05,549.977 1075.28,542.424 1076.02,534.455L1115.57,534.455Z" style="fill:rgb(30,63,109);"/>
                        </g>
                        <g transform="matrix(0.933021,0,0,0.922979,979.507,319.474)">
                            <path d="M755,90.307L693.728,90.307L693.728,42.512L809.518,42.512L809.518,43L810,43L810,162L755,162L755,90.307Z" style="fill:rgb(130,130,130);"/>
                        </g>
                    </g>
                </g>
                <g transform="matrix(1,0,0,1,0,5)">
                    <g transform="matrix(0.845534,0,0,1,845.822,-53.7641)">
                        <g transform="matrix(0.457746,0,0,0.304815,1188.18,949.068)">
                            <path d="M1383.24,1494.32L1394.24,1498.19C1391.93,1510.79 1387.79,1520.39 1381.8,1527C1375.81,1533.61 1368.49,1536.92 1359.83,1536.92C1350.88,1536.92 1343.6,1534.38 1337.98,1529.29C1332.37,1524.21 1328.1,1516.85 1325.17,1507.2C1322.25,1497.56 1320.78,1487.21 1320.78,1476.14C1320.78,1464.08 1322.43,1453.55 1325.74,1444.57C1329.05,1435.58 1333.75,1428.76 1339.85,1424.1C1345.96,1419.43 1352.67,1417.1 1360,1417.1C1368.32,1417.1 1375.31,1420.05 1380.98,1425.95C1386.64,1431.86 1390.59,1440.15 1392.82,1450.85L1382,1454.41C1380.07,1445.98 1377.27,1439.84 1373.61,1435.99C1369.94,1432.15 1365.33,1430.22 1359.78,1430.22C1353.39,1430.22 1348.05,1432.36 1343.77,1436.62C1339.48,1440.89 1336.46,1446.62 1334.73,1453.82C1332.99,1461.01 1332.12,1468.42 1332.12,1476.06C1332.12,1485.92 1333.15,1494.52 1335.21,1501.87C1337.27,1509.22 1340.47,1514.71 1344.81,1518.35C1349.16,1521.98 1353.86,1523.8 1358.93,1523.8C1365.09,1523.8 1370.3,1521.32 1374.57,1516.37C1378.84,1511.42 1381.73,1504.07 1383.24,1494.32Z" style="fill:rgb(131,130,129);fill-rule:nonzero;"/>
                        </g>
                        <g transform="matrix(0.457746,0,0,0.304815,1188.18,949.068)">
                            <path d="M1407.33,1534.94L1407.33,1419.08L1418.33,1419.08L1418.33,1521.27L1459.25,1521.27L1459.25,1534.94L1407.33,1534.94Z" style="fill:rgb(131,130,129);fill-rule:nonzero;"/>
                        </g>
                        <g transform="matrix(0.457746,0,0,0.304815,1188.18,949.068)">
                            <path d="M1463.22,1534.94L1495.13,1419.08L1506.98,1419.08L1540.98,1534.94L1528.46,1534.94L1518.77,1499.85L1484.02,1499.85L1474.89,1534.94L1463.22,1534.94ZM1487.19,1487.37L1515.36,1487.37L1506.69,1455.28C1504.05,1445.53 1502.08,1437.52 1500.8,1431.25C1499.74,1438.68 1498.25,1446.06 1496.32,1453.38L1487.19,1487.37Z" style="fill:rgb(131,130,129);fill-rule:nonzero;"/>
                        </g>
                        <g transform="matrix(0.457746,0,0,0.304815,1188.18,949.068)">
                            <path d="M1549.77,1534.94L1549.77,1419.08L1578.39,1419.08C1584.85,1419.08 1589.79,1419.63 1593.19,1420.74C1597.95,1422.27 1602.01,1425.03 1605.37,1429.04C1609.76,1434.2 1613.03,1440.8 1615.21,1448.84C1617.38,1456.87 1618.47,1466.05 1618.47,1476.38C1618.47,1485.18 1617.73,1492.98 1616.26,1499.77C1614.78,1506.57 1612.89,1512.2 1610.59,1516.65C1608.28,1521.1 1605.76,1524.6 1603.02,1527.16C1600.28,1529.72 1596.97,1531.65 1593.1,1532.97C1589.23,1534.29 1584.78,1534.94 1579.75,1534.94L1549.77,1534.94ZM1560.77,1521.27L1578.51,1521.27C1583.99,1521.27 1588.28,1520.56 1591.4,1519.14C1594.52,1517.71 1597,1515.71 1598.85,1513.13C1601.46,1509.5 1603.49,1504.61 1604.95,1498.47C1606.4,1492.33 1607.13,1484.89 1607.13,1476.14C1607.13,1464.02 1605.7,1454.71 1602.85,1448.2C1600,1441.7 1596.53,1437.34 1592.45,1435.12C1589.5,1433.54 1584.76,1432.75 1578.22,1432.75L1560.77,1432.75L1560.77,1521.27Z" style="fill:rgb(131,130,129);fill-rule:nonzero;"/>
                        </g>
                        <g transform="matrix(0.457746,0,0,0.304815,1188.18,949.068)">
                            <path d="M1633.6,1534.94L1633.6,1419.08L1662.22,1419.08C1668.68,1419.08 1673.62,1419.63 1677.02,1420.74C1681.78,1422.27 1685.84,1425.03 1689.2,1429.04C1693.59,1434.2 1696.86,1440.8 1699.04,1448.84C1701.21,1456.87 1702.3,1466.05 1702.3,1476.38C1702.3,1485.18 1701.56,1492.98 1700.09,1499.77C1698.61,1506.57 1696.72,1512.2 1694.42,1516.65C1692.11,1521.1 1689.59,1524.6 1686.85,1527.16C1684.11,1529.72 1680.8,1531.65 1676.93,1532.97C1673.06,1534.29 1668.61,1534.94 1663.58,1534.94L1633.6,1534.94ZM1644.6,1521.27L1662.34,1521.27C1667.82,1521.27 1672.11,1520.56 1675.23,1519.14C1678.35,1517.71 1680.83,1515.71 1682.68,1513.13C1685.29,1509.5 1687.32,1504.61 1688.78,1498.47C1690.23,1492.33 1690.96,1484.89 1690.96,1476.14C1690.96,1464.02 1689.53,1454.71 1686.68,1448.2C1683.83,1441.7 1680.36,1437.34 1676.28,1435.12C1673.33,1433.54 1668.59,1432.75 1662.05,1432.75L1644.6,1432.75L1644.6,1521.27Z" style="fill:rgb(131,130,129);fill-rule:nonzero;"/>
                        </g>
                        <g transform="matrix(0.457746,0,0,0.304815,1188.18,949.068)">
                            <rect x="1719.3" y="1419.08" width="10.996" height="115.866" style="fill:rgb(131,130,129);fill-rule:nonzero;"/>
                        </g>
                        <g transform="matrix(0.457746,0,0,0.304815,1188.18,949.068)">
                            <path d="M1749.57,1534.94L1749.57,1419.08L1760.85,1419.08L1804.49,1510.05L1804.49,1419.08L1815.03,1419.08L1815.03,1534.94L1803.75,1534.94L1760.11,1443.9L1760.11,1534.94L1749.57,1534.94Z" style="fill:rgb(131,130,129);fill-rule:nonzero;"/>
                        </g>
                        <g transform="matrix(0.457746,0,0,0.304815,1188.18,949.068)">
                            <path d="M1872.39,1489.5L1872.39,1475.9L1907.59,1475.83L1907.59,1518.82C1902.19,1524.83 1896.61,1529.35 1890.87,1532.38C1885.13,1535.41 1879.23,1536.92 1873.19,1536.92C1865.02,1536.92 1857.61,1534.48 1850.94,1529.61C1844.27,1524.74 1839.23,1517.69 1835.83,1508.47C1832.43,1499.25 1830.73,1488.95 1830.73,1477.57C1830.73,1466.29 1832.42,1455.77 1835.81,1445.99C1839.19,1436.22 1844.05,1428.96 1850.4,1424.22C1856.75,1419.47 1864.06,1417.1 1872.34,1417.1C1878.34,1417.1 1883.78,1418.46 1888.63,1421.17C1893.49,1423.89 1897.29,1427.67 1900.05,1432.52C1902.81,1437.36 1904.91,1443.68 1906.34,1451.48L1896.42,1455.28C1895.18,1449.38 1893.63,1444.74 1891.78,1441.37C1889.92,1438 1887.28,1435.29 1883.84,1433.27C1880.4,1431.24 1876.59,1430.22 1872.39,1430.22C1867.37,1430.22 1863.02,1431.29 1859.36,1433.42C1855.69,1435.56 1852.73,1438.36 1850.49,1441.84C1848.24,1445.32 1846.49,1449.14 1845.24,1453.3C1843.13,1460.47 1842.07,1468.24 1842.07,1476.62C1842.07,1486.94 1843.34,1495.59 1845.89,1502.54C1848.44,1509.5 1852.16,1514.66 1857.03,1518.03C1861.91,1521.4 1867.08,1523.09 1872.56,1523.09C1877.32,1523.09 1881.97,1521.81 1886.51,1519.26C1891.04,1516.7 1894.48,1513.97 1896.82,1511.08L1896.82,1489.5L1872.39,1489.5Z" style="fill:rgb(131,130,129);fill-rule:nonzero;"/>
                        </g>
                        <g transform="matrix(0.457746,0,0,0.304815,1188.18,949.068)">
                            <path d="M1952.31,1497.72L1962.68,1496.45C1963.17,1502.25 1964.32,1507.01 1966.11,1510.72C1967.91,1514.43 1970.69,1517.44 1974.47,1519.73C1978.25,1522.02 1982.5,1523.17 1987.23,1523.17C1991.42,1523.17 1995.12,1522.3 1998.34,1520.56C2001.55,1518.82 2003.94,1516.44 2005.51,1513.41C2007.07,1510.38 2007.86,1507.07 2007.86,1503.49C2007.86,1499.85 2007.1,1496.68 2005.59,1493.96C2004.08,1491.25 2001.59,1488.97 1998.11,1487.13C1995.88,1485.92 1990.95,1484.03 1983.32,1481.48C1975.68,1478.92 1970.34,1476.51 1967.28,1474.25C1963.31,1471.35 1960.35,1467.75 1958.4,1463.46C1956.46,1459.16 1955.49,1454.36 1955.49,1449.03C1955.49,1443.18 1956.67,1437.72 1959.06,1432.63C1961.44,1427.55 1964.91,1423.69 1969.49,1421.06C1974.06,1418.42 1979.14,1417.1 1984.73,1417.1C1990.89,1417.1 1996.32,1418.49 2001.03,1421.25C2005.73,1424.02 2009.35,1428.09 2011.88,1433.46C2014.41,1438.84 2015.77,1444.92 2015.96,1451.72L2005.42,1452.83C2004.85,1445.5 2002.94,1439.97 1999.67,1436.23C1996.4,1432.49 1991.57,1430.62 1985.18,1430.62C1978.54,1430.62 1973.69,1432.32 1970.65,1435.72C1967.61,1439.11 1966.08,1443.21 1966.08,1448.01C1966.08,1452.17 1967.16,1455.59 1969.32,1458.28C1971.43,1460.97 1976.96,1463.72 1985.89,1466.54C1994.83,1469.36 2000.96,1471.82 2004.29,1473.93C2009.12,1477.04 2012.69,1480.98 2015,1485.75C2017.3,1490.51 2018.46,1496.01 2018.46,1502.22C2018.46,1508.39 2017.19,1514.2 2014.66,1519.65C2012.13,1525.11 2008.49,1529.35 2003.75,1532.38C1999.01,1535.41 1993.67,1536.92 1987.74,1536.92C1980.22,1536.92 1973.92,1535.39 1968.83,1532.34C1963.75,1529.28 1959.76,1524.68 1956.87,1518.55C1953.98,1512.41 1952.46,1505.46 1952.31,1497.72Z" style="fill:rgb(131,130,129);fill-rule:nonzero;"/>
                        </g>
                        <g transform="matrix(0.457746,0,0,0.304815,1188.18,949.068)">
                            <path d="M2088,1419.08L2099,1419.08L2099,1486.02C2099,1497.67 2098.05,1506.91 2096.16,1513.76C2094.28,1520.61 2090.87,1526.18 2085.93,1530.48C2081,1534.77 2074.53,1536.92 2066.52,1536.92C2058.74,1536.92 2052.37,1535.05 2047.42,1531.31C2042.47,1527.57 2038.94,1522.15 2036.82,1515.07C2034.71,1507.98 2033.65,1498.3 2033.65,1486.02L2033.65,1419.08L2044.64,1419.08L2044.64,1485.94C2044.64,1496.01 2045.31,1503.42 2046.65,1508.19C2048,1512.96 2050.3,1516.63 2053.57,1519.22C2056.84,1521.8 2060.84,1523.09 2065.56,1523.09C2073.64,1523.09 2079.41,1520.53 2082.85,1515.42C2086.28,1510.31 2088,1500.49 2088,1485.94L2088,1419.08Z" style="fill:rgb(131,130,129);fill-rule:nonzero;"/>
                        </g>
                        <g transform="matrix(0.457746,0,0,0.304815,1188.18,949.068)">
                            <path d="M2117.31,1534.94L2117.31,1419.08L2148.65,1419.08C2154.17,1419.08 2158.38,1419.45 2161.29,1420.19C2165.37,1421.13 2168.79,1422.94 2171.55,1425.6C2174.31,1428.26 2176.53,1431.99 2178.21,1436.78C2179.89,1441.58 2180.73,1446.85 2180.73,1452.59C2180.73,1462.44 2178.48,1470.78 2173.99,1477.61C2169.49,1484.43 2161.37,1487.84 2149.61,1487.84L2128.3,1487.84L2128.3,1534.94L2117.31,1534.94ZM2128.3,1474.17L2149.78,1474.17C2156.89,1474.17 2161.93,1472.32 2164.92,1468.63C2167.9,1464.95 2169.4,1459.76 2169.4,1453.06C2169.4,1448.22 2168.52,1444.07 2166.76,1440.62C2165,1437.16 2162.69,1434.89 2159.82,1433.78C2157.97,1433.1 2154.55,1432.75 2149.56,1432.75L2128.3,1432.75L2128.3,1474.17Z" style="fill:rgb(131,130,129);fill-rule:nonzero;"/>
                        </g>
                        <g transform="matrix(0.457746,0,0,0.304815,1188.18,949.068)">
                            <path d="M2194.73,1534.94L2194.73,1419.08L2226.08,1419.08C2231.59,1419.08 2235.81,1419.45 2238.72,1420.19C2242.8,1421.13 2246.22,1422.94 2248.97,1425.6C2251.73,1428.26 2253.95,1431.99 2255.64,1436.78C2257.32,1441.58 2258.16,1446.85 2258.16,1452.59C2258.16,1462.44 2255.91,1470.78 2251.41,1477.61C2246.91,1484.43 2238.79,1487.84 2227.04,1487.84L2205.73,1487.84L2205.73,1534.94L2194.73,1534.94ZM2205.73,1474.17L2227.21,1474.17C2234.31,1474.17 2239.36,1472.32 2242.34,1468.63C2245.33,1464.95 2246.82,1459.76 2246.82,1453.06C2246.82,1448.22 2245.94,1444.07 2244.18,1440.62C2242.43,1437.16 2240.11,1434.89 2237.24,1433.78C2235.39,1433.1 2231.97,1432.75 2226.98,1432.75L2205.73,1432.75L2205.73,1474.17Z" style="fill:rgb(131,130,129);fill-rule:nonzero;"/>
                        </g>
                        <g transform="matrix(0.457746,0,0,0.304815,1188.18,949.068)">
                            <path d="M2271.7,1534.94L2271.7,1419.08L2282.7,1419.08L2282.7,1521.27L2323.62,1521.27L2323.62,1534.94L2271.7,1534.94Z" style="fill:rgb(131,130,129);fill-rule:nonzero;"/>
                        </g>
                        <g transform="matrix(0.457746,0,0,0.304815,1188.18,949.068)">
                            <rect x="2338.59" y="1419.08" width="10.996" height="115.866" style="fill:rgb(131,130,129);fill-rule:nonzero;"/>
                        </g>
                        <g transform="matrix(0.457746,0,0,0.304815,1188.18,949.068)">
                            <path d="M2369.19,1534.94L2369.19,1419.08L2429.27,1419.08L2429.27,1432.75L2380.19,1432.75L2380.19,1468.24L2426.16,1468.24L2426.16,1481.83L2380.19,1481.83L2380.19,1521.27L2431.2,1521.27L2431.2,1534.94L2369.19,1534.94Z" style="fill:rgb(131,130,129);fill-rule:nonzero;"/>
                        </g>
                        <g transform="matrix(0.457746,0,0,0.304815,1188.18,949.068)">
                            <path d="M2442.65,1497.72L2453.02,1496.45C2453.51,1502.25 2454.66,1507.01 2456.45,1510.72C2458.25,1514.43 2461.03,1517.44 2464.81,1519.73C2468.59,1522.02 2472.84,1523.17 2477.57,1523.17C2481.76,1523.17 2485.46,1522.3 2488.68,1520.56C2491.89,1518.82 2494.28,1516.44 2495.85,1513.41C2497.41,1510.38 2498.2,1507.07 2498.2,1503.49C2498.2,1499.85 2497.44,1496.68 2495.93,1493.96C2494.42,1491.25 2491.92,1488.97 2488.45,1487.13C2486.22,1485.92 2481.29,1484.03 2473.66,1481.48C2466.02,1478.92 2460.68,1476.51 2457.61,1474.25C2453.65,1471.35 2450.69,1467.75 2448.74,1463.46C2446.8,1459.16 2445.83,1454.36 2445.83,1449.03C2445.83,1443.18 2447.01,1437.72 2449.4,1432.63C2451.78,1427.55 2455.25,1423.69 2459.83,1421.06C2464.4,1418.42 2469.48,1417.1 2475.07,1417.1C2481.23,1417.1 2486.66,1418.49 2491.37,1421.25C2496.07,1424.02 2499.69,1428.09 2502.22,1433.46C2504.75,1438.84 2506.11,1444.92 2506.3,1451.72L2495.76,1452.83C2495.19,1445.5 2493.28,1439.97 2490.01,1436.23C2486.74,1432.49 2481.91,1430.62 2475.53,1430.62C2468.88,1430.62 2464.03,1432.32 2460.99,1435.72C2457.95,1439.11 2456.42,1443.21 2456.42,1448.01C2456.42,1452.17 2457.5,1455.59 2459.66,1458.28C2461.77,1460.97 2467.3,1463.72 2476.23,1466.54C2485.17,1469.36 2491.3,1471.82 2494.63,1473.93C2499.46,1477.04 2503.03,1480.98 2505.34,1485.75C2507.64,1490.51 2508.8,1496.01 2508.8,1502.22C2508.8,1508.39 2507.53,1514.2 2505,1519.65C2502.47,1525.11 2498.83,1529.35 2494.09,1532.38C2489.35,1535.41 2484.01,1536.92 2478.08,1536.92C2470.56,1536.92 2464.26,1535.39 2459.17,1532.34C2454.09,1529.28 2450.1,1524.68 2447.21,1518.55C2444.32,1512.41 2442.8,1505.46 2442.65,1497.72Z" style="fill:rgb(131,130,129);fill-rule:nonzero;"/>
                        </g>
                    </g>
                    <g transform="matrix(1,0,0,1,-0.197599,10)">
                        <g transform="matrix(2.03327,0,0,1.46396,-1507.54,-727.066)">
                            <path d="M1623.25,1415.32L1627.71,1414.93C1627.92,1416.72 1628.42,1418.18 1629.19,1419.33C1629.96,1420.48 1631.16,1421.41 1632.79,1422.12C1634.42,1422.82 1636.25,1423.18 1638.29,1423.18C1640.09,1423.18 1641.69,1422.91 1643.07,1422.37C1644.45,1421.84 1645.48,1421.1 1646.16,1420.16C1646.83,1419.23 1647.17,1418.2 1647.17,1417.1C1647.17,1415.98 1646.85,1415 1646.19,1414.16C1645.54,1413.32 1644.47,1412.62 1642.97,1412.05C1642.01,1411.67 1639.89,1411.09 1636.6,1410.3C1633.31,1409.51 1631.01,1408.77 1629.69,1408.07C1627.98,1407.17 1626.71,1406.06 1625.87,1404.73C1625.03,1403.41 1624.61,1401.92 1624.61,1400.28C1624.61,1398.47 1625.13,1396.78 1626.15,1395.21C1627.18,1393.64 1628.67,1392.45 1630.64,1391.63C1632.61,1390.82 1634.8,1390.41 1637.21,1390.41C1639.86,1390.41 1642.2,1390.84 1644.23,1391.7C1646.26,1392.55 1647.82,1393.81 1648.9,1395.47C1650,1397.13 1650.58,1399.01 1650.66,1401.11L1646.12,1401.45C1645.88,1399.19 1645.05,1397.48 1643.64,1396.32C1642.24,1395.17 1640.16,1394.59 1637.41,1394.59C1634.54,1394.59 1632.45,1395.11 1631.14,1396.16C1629.83,1397.21 1629.18,1398.48 1629.18,1399.96C1629.18,1401.25 1629.64,1402.3 1630.57,1403.13C1631.48,1403.96 1633.86,1404.81 1637.71,1405.68C1641.56,1406.56 1644.2,1407.32 1645.63,1407.97C1647.72,1408.93 1649.26,1410.14 1650.25,1411.62C1651.24,1413.09 1651.74,1414.79 1651.74,1416.71C1651.74,1418.61 1651.19,1420.41 1650.1,1422.09C1649.01,1423.78 1647.44,1425.09 1645.4,1426.02C1643.36,1426.96 1641.06,1427.43 1638.51,1427.43C1635.27,1427.43 1632.55,1426.95 1630.36,1426.01C1628.17,1425.07 1626.46,1423.65 1625.21,1421.75C1623.97,1419.85 1623.31,1417.71 1623.25,1415.32Z" style="fill:rgb(30,63,109);fill-rule:nonzero;"/>
                        </g>
                        <g transform="matrix(2.03327,0,0,1.46396,-1507.54,-727.066)">
                            <path d="M1683.74,1414.27L1688.48,1415.46C1687.49,1419.35 1685.7,1422.32 1683.12,1424.36C1680.54,1426.4 1677.39,1427.43 1673.66,1427.43C1669.8,1427.43 1666.67,1426.64 1664.25,1425.07C1661.83,1423.5 1659.99,1421.23 1658.73,1418.25C1657.47,1415.27 1656.84,1412.07 1656.84,1408.65C1656.84,1404.92 1657.55,1401.67 1658.98,1398.9C1660.4,1396.12 1662.43,1394.02 1665.06,1392.58C1667.68,1391.13 1670.58,1390.41 1673.73,1390.41C1677.32,1390.41 1680.33,1391.33 1682.77,1393.15C1685.21,1394.97 1686.91,1397.54 1687.87,1400.84L1683.21,1401.94C1682.38,1399.33 1681.17,1397.44 1679.59,1396.25C1678.02,1395.06 1676.03,1394.47 1673.64,1394.47C1670.89,1394.47 1668.59,1395.13 1666.74,1396.44C1664.89,1397.76 1663.59,1399.53 1662.85,1401.75C1662.1,1403.98 1661.72,1406.27 1661.72,1408.63C1661.72,1411.67 1662.17,1414.33 1663.05,1416.6C1663.94,1418.87 1665.32,1420.57 1667.19,1421.69C1669.06,1422.81 1671.09,1423.37 1673.27,1423.37C1675.92,1423.37 1678.17,1422.61 1680.01,1421.08C1681.85,1419.55 1683.09,1417.28 1683.74,1414.27Z" style="fill:rgb(30,63,109);fill-rule:nonzero;"/>
                        </g>
                        <g transform="matrix(2.03327,0,0,1.46396,-1507.54,-727.066)">
                            <path d="M1692.88,1409.38C1692.88,1403.44 1694.47,1398.79 1697.66,1395.43C1700.85,1392.07 1704.97,1390.39 1710.01,1390.39C1713.32,1390.39 1716.3,1391.18 1718.95,1392.76C1721.6,1394.34 1723.62,1396.54 1725.02,1399.36C1726.41,1402.19 1727.1,1405.39 1727.1,1408.97C1727.1,1412.6 1726.37,1415.85 1724.91,1418.71C1723.44,1421.58 1721.37,1423.74 1718.68,1425.22C1716,1426.69 1713.1,1427.43 1709.99,1427.43C1706.62,1427.43 1703.61,1426.61 1700.96,1424.98C1698.3,1423.36 1696.29,1421.13 1694.93,1418.32C1693.56,1415.5 1692.88,1412.53 1692.88,1409.38ZM1697.76,1409.46C1697.76,1413.77 1698.92,1417.17 1701.24,1419.65C1703.56,1422.13 1706.47,1423.37 1709.97,1423.37C1713.53,1423.37 1716.46,1422.12 1718.77,1419.61C1721.07,1417.11 1722.22,1413.55 1722.22,1408.94C1722.22,1406.03 1721.73,1403.49 1720.74,1401.32C1719.76,1399.14 1718.32,1397.46 1716.42,1396.26C1714.53,1395.07 1712.4,1394.47 1710.04,1394.47C1706.68,1394.47 1703.8,1395.62 1701.38,1397.92C1698.97,1400.22 1697.76,1404.07 1697.76,1409.46Z" style="fill:rgb(30,63,109);fill-rule:nonzero;"/>
                        </g>
                        <g transform="matrix(2.03327,0,0,1.46396,-1507.54,-727.066)">
                            <path d="M1742.31,1426.82L1742.31,1395.25L1730.52,1395.25L1730.52,1391.02L1758.89,1391.02L1758.89,1395.25L1747.05,1395.25L1747.05,1426.82L1742.31,1426.82Z" style="fill:rgb(30,63,109);fill-rule:nonzero;"/>
                        </g>
                        <g transform="matrix(2.03327,0,0,1.46396,-1507.54,-727.066)">
                            <path d="M1763.55,1426.82L1763.55,1391.02L1768.29,1391.02L1768.29,1422.59L1785.92,1422.59L1785.92,1426.82L1763.55,1426.82Z" style="fill:rgb(30,63,109);fill-rule:nonzero;"/>
                        </g>
                        <g transform="matrix(2.03327,0,0,1.46396,-1507.54,-727.066)">
                            <path d="M1787.63,1426.82L1801.37,1391.02L1806.47,1391.02L1821.12,1426.82L1815.73,1426.82L1811.55,1415.98L1796.59,1415.98L1792.65,1426.82L1787.63,1426.82ZM1797.95,1412.12L1810.09,1412.12L1806.35,1402.21C1805.21,1399.19 1804.37,1396.72 1803.81,1394.78C1803.36,1397.08 1802.71,1399.36 1801.88,1401.62L1797.95,1412.12Z" style="fill:rgb(30,63,109);fill-rule:nonzero;"/>
                        </g>
                        <g transform="matrix(2.03327,0,0,1.46396,-1507.54,-727.066)">
                            <path d="M1824.86,1426.82L1824.86,1391.02L1829.72,1391.02L1848.52,1419.12L1848.52,1391.02L1853.06,1391.02L1853.06,1426.82L1848.2,1426.82L1829.4,1398.69L1829.4,1426.82L1824.86,1426.82Z" style="fill:rgb(30,63,109);fill-rule:nonzero;"/>
                        </g>
                        <g transform="matrix(2.03327,0,0,1.46396,-1507.54,-727.066)">
                            <path d="M1861.02,1426.82L1861.02,1391.02L1873.34,1391.02C1876.13,1391.02 1878.25,1391.19 1879.72,1391.54C1881.77,1392.01 1883.52,1392.86 1884.97,1394.1C1886.85,1395.7 1888.27,1397.73 1889.2,1400.22C1890.14,1402.7 1890.6,1405.54 1890.6,1408.73C1890.6,1411.44 1890.29,1413.85 1889.65,1415.95C1889.02,1418.05 1888.2,1419.79 1887.21,1421.16C1886.22,1422.54 1885.13,1423.62 1883.95,1424.41C1882.77,1425.2 1881.35,1425.8 1879.68,1426.2C1878.01,1426.61 1876.09,1426.82 1873.93,1426.82L1861.02,1426.82ZM1865.75,1422.59L1873.39,1422.59C1875.75,1422.59 1877.6,1422.37 1878.95,1421.93C1880.29,1421.49 1881.36,1420.88 1882.16,1420.08C1883.28,1418.95 1884.15,1417.44 1884.78,1415.55C1885.41,1413.65 1885.72,1411.35 1885.72,1408.65C1885.72,1404.91 1885.11,1402.03 1883.88,1400.02C1882.65,1398.01 1881.16,1396.66 1879.4,1395.98C1878.13,1395.49 1876.09,1395.25 1873.27,1395.25L1865.75,1395.25L1865.75,1422.59Z" style="fill:rgb(30,63,109);fill-rule:nonzero;"/>
                        </g>
                    </g>
                </g>
            </g>
        </g>
    </g>
</svg>
